<?xml version="1.0" encoding="utf-8"?>
<!-- Generator: Adobe Illustrator 22.1.0, SVG Export Plug-In . SVG Version: 6.00 Build 0)  -->
<svg version="1.2" baseProfile="tiny" id="Режим_изоляции"
	 xmlns="http://www.w3.org/2000/svg" xmlns:xlink="http://www.w3.org/1999/xlink" x="0px" y="0px" viewBox="0 0 951.38 1003.186"
	 xml:space="preserve">
<g>
	<path fill="#1768C9" d="M153.167,197.586c0,0-0.581,1.098-1.609,3.168c-1,2.088-2.494,5.12-4.174,9.062
		c-1.734,3.91-3.644,8.733-5.615,14.286c-1.943,5.565-3.837,11.915-5.401,18.87c-0.777,3.48-1.441,7.116-1.938,10.881
		c-0.551,3.756-0.83,7.653-0.948,11.622c-0.115,3.971,0.02,8.029,0.484,12.103c0.081,1.024,0.246,2.039,0.406,3.058
		c0.167,1.072,0.334,2.15,0.502,3.233c0.359,2.161,0.724,4.684,1.002,7.029c1.167,9.512,1.582,19.524,0.811,29.754
		c-0.213,2.556-0.456,5.126-0.826,7.699c-0.084,0.644-0.174,1.288-0.283,1.931l-0.158,0.965l-0.079,0.483l-0.04,0.242l-0.02,0.121
		c0.018-0.059-0.218,0.955-0.132,0.578l-0.111,0.444l-0.055,0.222l-0.158,0.502c-0.204,0.632-0.522,1.467-0.673,1.773
		c-0.379,0.873-0.75,1.583-1.12,2.277c-0.738,1.36-1.45,2.494-2.141,3.604l-1.944,3.081c-0.579,0.933-1.132,1.885-1.357,2.397
		c-0.029,0.082-0.121,0.262-0.061,0.166l0.012-0.03l0.003-0.016c-0.105,0.371,0.148-0.536,0.11-0.389l-0.104,0.449
		c-0.075,0.28,0.033-0.022,0.056-0.144c0.036-0.135,0.046-0.364,0.057-0.344c0.01-0.033,0.011-0.072,0.01-0.102
		c0.009-0.01,0.013-0.021,0.013-0.032c0.016,0.004,0.045,0.207,0.155,0.67c0.107,0.479,0.307,1.246,0.468,2.331
		c0.153,1.077,0.277,2.535,0.02,4.187c-0.129,0.798-0.316,1.647-0.603,2.405l-0.216,0.577l-0.189,0.459l-0.182,0.423
		c-1.031,2.396-2.237,4.957-3.707,7.475c-1.483,2.529-3.191,4.926-4.859,6.966c-1.642,2.039-3.335,3.995-5.04,5.885
		c-6.809,7.575-14.048,14.135-21.11,20.337c-7.14,6.106-14.163,11.774-20.92,16.961c-3.372,2.561-6.653,5.052-9.826,7.462
		c-1.549,1.178-3.14,2.385-4.408,3.408l-0.396,0.325c-0.086,0.065-0.206,0.191,0.007-0.048l0.135-0.161
		c0.107-0.132,0.141-0.173,0.295-0.389c0.158-0.244,0.316-0.416,0.715-1.287c0.618-0.362,0.632-5.123,0.549-3.742
		c0.02,0.194-0.013-0.216-0.105-0.646c-0.058-0.326-0.271-0.935-0.239-0.836c-0.029-0.086-0.099-0.242-0.096-0.234
		c-0.069-0.135-0.015,0.005,0.03,0.105c0.223,0.504,0.634,1.236,1.013,1.92c0.799,1.394,1.657,2.814,2.531,4.181
		c0.885,1.363,1.787,2.687,2.668,3.985c1.8,2.566,3.58,4.978,5.335,7.192c3.505,4.434,6.86,8.126,9.821,11.068
		c2.954,2.95,5.52,5.144,7.327,6.644c0.901,0.755,1.615,1.328,2.105,1.701c0.486,0.391,0.737,0.594,0.737,0.594
		s-1.289-0.017-3.7-0.365c-2.39-0.384-5.915-1.177-10.151-2.954c-4.233-1.762-9.165-4.505-14.208-8.467
		c-2.516-1.983-5.078-4.246-7.574-6.845c-1.265-1.286-2.499-2.667-3.714-4.138c-1.226-1.466-2.436-3.006-3.612-4.724
		c-0.603-0.874-1.161-1.734-1.813-2.894c-0.172-0.318-0.331-0.598-0.585-1.168c-0.047-0.099-0.155-0.367-0.227-0.563
		c0.009,0.044-0.218-0.623-0.294-1.005c-0.11-0.486-0.16-0.952-0.145-0.818c-0.097,1.323-0.082-3.499,0.565-3.915
		c0.422-0.926,0.615-1.147,0.806-1.439c0.188-0.264,0.26-0.351,0.403-0.53l0.252-0.295c0.533-0.589,0.762-0.789,1.027-1.046
		l0.679-0.625c1.645-1.469,3.113-2.692,4.663-4.001c3.033-2.552,6.169-5.191,9.393-7.904c6.392-5.413,13.105-11.092,19.788-17.172
		c6.736-6.002,13.467-12.423,19.73-19.12c1.554-1.683,3.054-3.388,4.49-5.124c1.414-1.728,2.636-3.256,3.681-4.921
		c1.059-1.674,2.029-3.518,3.011-5.598l0.197-0.416c0.059-0.123-0.003,0.006-0.016,0.033c-0.021,0.048-0.04,0.096-0.056,0.146
		c-0.048,0.191-0.128,0.429-0.142,0.627c-0.048,0.438-0.003,0.655-0.011,0.518c-0.006-0.133-0.074-0.565-0.214-1.289
		c-0.135-0.74-0.311-1.752-0.372-2.973l-0.019-0.952c0.009-0.338,0.029-0.683,0.053-1.023c0.012-0.288,0.086-0.819,0.162-1.258
		l0.131-0.68c0.062-0.292,0.066-0.276,0.09-0.37l0.124-0.444c-0.023,0.071,0.263-0.905,0.183-0.607l0.084-0.232l0.174-0.462
		c0.255-0.68,0.455-1.042,0.682-1.518c0.869-1.688,1.634-2.814,2.377-3.947l2.09-3.074c0.639-0.948,1.257-1.874,1.712-2.651
		c0.219-0.378,0.426-0.747,0.543-0.991l0.054-0.102c0.029-0.054-0.011,0.023-0.01,0.03c-0.017,0.047-0.027,0.096-0.028,0.148
		c-0.001,0.024-0.001,0.056,0.004,0.074l0.063-0.22l0.126-0.44c0.105-0.451-0.107,0.49-0.078,0.356l0.022-0.104l0.044-0.209
		l0.087-0.417l0.175-0.834c0.123-0.554,0.235-1.112,0.339-1.671c0.451-2.228,0.789-4.482,1.105-6.734
		c1.189-9.026,1.337-18.143,0.747-26.967c-0.144-2.242-0.316-4.257-0.568-6.579c-0.054-0.551-0.131-1.151-0.165-1.657l-0.157-1.813
		c-0.108-1.205-0.216-2.402-0.237-3.595c-0.031-1.191-0.112-2.376-0.098-3.55c0.017-1.173,0.034-2.34,0.051-3.499
		c0.134-2.309,0.253-4.587,0.528-6.81c0.978-8.912,3.15-17.031,5.719-24.218c2.562-7.198,5.581-13.474,8.544-18.83
		c2.908-5.387,5.884-9.806,8.369-13.386c2.559-3.54,4.682-6.219,6.209-7.982C152.293,198.469,153.167,197.586,153.167,197.586z"/>
	<path fill="#1768C9" d="M88.452,468.892c-1.467,2.432-2.918,4.876-4.329,7.351c-1.411,2.476-2.841,4.932-4.207,7.438l-4.1,7.491
		c-0.665,1.254-1.199,2.618-1.695,3.986l-0.77,2.011c-0.28,0.658-0.57,1.265-0.883,1.821c-0.077,0.143-0.159,0.282-0.247,0.417
		l-0.181,0.323l-0.192,0.298l-0.049,0.074c0.403-0.641,0.107-0.17,0.195-0.309l-0.008,0.014l-0.016,0.029l-0.032,0.057l-0.13,0.229
		c0.042-0.028,0.243-0.404,0.28-0.529c0.032-0.043,0.047-0.121,0.061-0.147c0.026-0.065,0.031-0.077,0.032-0.051
		c-0.003,0.132,0.049,0.797,0.288,1.515c0.443,1.484,1.484,3.296,2.813,4.968c2.692,3.403,6.582,6.428,10.843,8.954
		c3.48,2.063,4.629,6.557,2.566,10.038c-0.256,0.432-0.55,0.828-0.875,1.187l-0.331,0.359l-1.184,1.291l-1.228,1.404
		c-0.812,0.947-1.605,1.914-2.371,2.889l-1.126,1.471l-0.546,0.74l-0.136,0.185l-0.034,0.046c0.355-0.493,0.078-0.106,0.148-0.203
		l-0.07,0.106l-0.14,0.211l-0.07,0.106c-0.004,0.01,0.03-0.031,0.042-0.046c0.065-0.072,0.135-0.202,0.16-0.247
		c0.013-0.006,0.02-0.016,0.021-0.028c0.018-0.007,0.019-0.019,0.024-0.005c0.007,0.023-0.003,0.115-0.001,0.281
		c-0.012,0.704,0.417,2.472,1.309,4.221c0.87,1.781,2.088,3.651,3.478,5.431c0.698,0.891,1.45,1.787,2.174,2.552
		c0.689,0.735,1.533,1.539,2.419,2.349c1.774,1.666,3.981,3.33,6.545,6.213c1.258,1.439,2.606,3.335,3.555,5.641
		c0.469,1.152,0.825,2.375,1.053,3.601c0.213,1.222,0.302,2.43,0.291,3.578c-0.014,0.563-0.035,1.132-0.088,1.667l-0.086,0.799
		l-0.072,0.571l-0.259,1.986l-0.531,4.001l-4.096,32.056c-0.624,5.32-1.344,10.665-1.831,15.838c-0.121,1.28-0.23,2.565-0.292,3.699
		c-0.033,0.53-0.04,1.154-0.042,1.205c-0.001,0.032-0.004-0.032-0.013-0.104l-0.071-0.427l-0.04-0.178l-0.076-0.292
		c-0.109-0.404-0.259-0.805-0.443-1.181l0.1,0.224l0.341,0.792l0.187,0.462c0.208,0.521,0.346,0.815,0.49,1.11
		c0.14,0.285,0.276,0.524,0.432,0.748c0.309,0.447,0.672,0.86,1.191,1.267c1.009,0.82,2.621,1.578,4.56,2.101
		c1.934,0.536,4.174,0.839,6.498,0.988c0.577,0.047,1.179,0.05,1.768,0.08l0.111,0.004l0.055,0.002
		c0.047,0.001-0.215,0.003-0.074,0.002l0.254,0.002l0.507,0.004l1.015,0.008l1.768-0.03c0.563-0.004,1.257-0.049,1.879-0.071
		c2.564-0.113,5.194-0.308,7.842-0.514c5.301-0.381,10.655-0.916,16.032-1.368c5.375-0.491,10.773-0.948,16.183-1.386
		c5.413-0.415,10.836-0.822,16.278-1.113c5.439-0.314,10.895-0.537,16.364-0.63c5.467-0.106,10.953-0.054,16.44,0.232
		c5.469,0.386,11.031,0.808,16.29,2.408c-2.731-0.079-5.421,0.138-8.101,0.408c-2.678,0.243-5.35,0.649-8.009,1.051
		c-5.325,0.8-10.626,1.786-15.927,2.762l-31.812,6.167c-5.317,1.01-10.64,2.025-15.995,2.962
		c-5.351,0.973-10.732,1.828-16.189,2.638c-2.731,0.392-5.486,0.732-8.319,1.02c-0.728,0.066-1.382,0.147-2.171,0.201l-2.286,0.16
		l-1.014,0.048l-0.507,0.024l-0.254,0.012l-0.415,0.005c-0.764-0.002-1.516,0.019-2.29-0.007c-3.078-0.072-6.25-0.328-9.577-1.08
		c-3.303-0.757-6.841-1.986-10.215-4.367c-1.674-1.176-3.268-2.676-4.594-4.383c-1.33-1.671-2.379-3.692-3.019-5.212l-0.268-0.613
		l-0.113-0.236c-0.211-0.456-0.389-0.936-0.526-1.421c-0.087-0.312-0.07-0.274-0.104-0.415l-0.063-0.303l-0.099-0.581l-0.042-0.347
		c-0.027-0.24-0.048-0.473-0.055-0.609c-0.076-1.299-0.045-2.03-0.029-2.852c0.047-1.57,0.135-2.984,0.233-4.401
		c0.419-5.612,0.923-11.024,1.551-16.454c0.618-5.419,1.273-10.817,1.946-16.209l2.207-16.147l0.575-4.041l0.304-2.033l0.094-0.643
		c0.021-0.137,0.021-0.246,0.035-0.358c0.013-0.423-0.01-0.554-0.068-0.757c-0.073-0.203-0.25-0.586-0.757-1.193
		c-0.98-1.219-3.007-2.972-5.162-5.02c-1.091-1.038-2.175-2.135-3.301-3.408c-1.093-1.239-2.044-2.451-2.976-3.718
		c-1.855-2.546-3.557-5.27-4.971-8.398c-0.703-1.567-1.334-3.241-1.809-5.107c-0.468-1.862-0.798-3.937-0.692-6.303
		c0.061-1.185,0.24-2.44,0.601-3.723c0.177-0.641,0.414-1.287,0.681-1.923l0.453-0.947c0.179-0.346,0.428-0.765,0.658-1.132
		l0.17-0.265l0.073-0.103l0.147-0.207l0.073-0.103l0.22-0.307l0.043-0.055l0.172-0.219l0.688-0.871l1.398-1.707
		c0.943-1.122,1.904-2.218,2.889-3.293l1.498-1.602c0.526-0.547,0.988-1.025,1.618-1.646l1.36,11.584
		c-5.246-3.38-10.33-7.421-14.461-12.971c-2.033-2.799-3.869-5.928-4.933-9.866c-0.265-0.98-0.469-2.027-0.585-3.15
		c-0.115-1.12-0.15-2.316,0.013-3.657c0.083-0.671,0.214-1.374,0.423-2.116c0.1-0.366,0.249-0.77,0.388-1.147
		c0.173-0.448,0.517-1.145,0.716-1.486l0.137-0.225l0.271-0.436l0.105-0.14l0.421-0.557c0.139-0.18,0.299-0.371,0.435-0.53
		c0.125-0.144,0.257-0.283,0.393-0.418c1.063-1.136,2.292-1.952,3.551-2.783c1.256-0.823,2.497-1.633,3.601-2.557l6.599-5.507
		c2.214-1.815,4.373-3.673,6.56-5.503C84.153,472.611,86.306,470.754,88.452,468.892z"/>
	<path fill="#1768C9" d="M225.349,643.125c0,0,2.589,1.654,6.622,5.508c4.031,3.845,9.502,9.906,15.112,18.547
		c2.783,4.327,5.594,9.297,8.214,14.929c1.229,2.727,2.508,5.564,3.835,8.508c0.333,0.77,0.682,1.43,1.033,2.104
		c0.349,0.679,0.701,1.363,1.056,2.053c0.355,0.691,0.712,1.389,1.073,2.092c0.403,0.725,0.808,1.457,1.218,2.194
		c3.214,5.907,7.015,12.14,11.095,18.688c4.082,6.55,8.539,13.403,13.191,20.601c4.65,7.212,9.547,14.706,14.429,22.828
		c0.605,1.027,1.213,2.058,1.823,3.094l0.916,1.559l0.894,1.626c0.597,1.087,1.195,2.179,1.797,3.275
		c0.576,1.172,1.155,2.348,1.736,3.529c0.59,1.115,1.13,2.533,1.666,3.9c0.263,0.692,0.546,1.359,0.785,2.078l0.555,1.725
		c0.369,1.119,0.746,2.392,1.122,3.617c0.382,1.239,0.712,2.441,1.072,3.67c5.56,19.606,11.974,1.712,12.187,4.327
		c0.215,2.609,0.478,5.183,0.87,7.509c0.196,1.155,0.419,2.267,0.677,3.201c0.249,0.92,0.558,1.709,0.727,2.002
		c0.161,0.301,0.1-0.128-1.057-0.819c-0.533-0.283-1.222-0.444-1.611-0.475c-0.052-0.004-0.105-0.005-0.157-0.003
		c0.004,0.003-0.985,0.03-0.424,0.01l0.526-0.032l1.015-0.067c0.11-0.041,0.22-0.072,0.331-0.094
		c0.138-0.034,0.149-0.003,0.448-0.086c0.489-0.131,0.937-0.2,1.464-0.362c0.528-0.167,1.041-0.301,1.584-0.483l1.658-0.585
		c2.256-0.86,4.589-1.908,6.93-3.041c4.692-2.325,9.408-5.018,14.073-7.885c9.328-5.769,18.519-12.166,27.507-18.85
		c17.962-13.413,35.214-27.984,51.237-43.181c8.023-7.589,15.677-15.404,22.926-23.314c7.224-7.918-6.013,52.964-0.258,44.68
		c2.86-4.137,5.481-8.329,7.528-12.473c1.062-2.072-8.109-4.116-7.381-6.096c0.648-1.957,11.115,6.16,11.295,4.553
		c0.18-1.612-0.005-2.797-0.258-3.511c-0.007-0.115-0.062-0.184-0.108-0.256c-0.043-0.075-0.078-0.152-0.106-0.235
		c-0.024-0.053-0.002-0.058-0.06-0.154l-0.24-0.411c0,0,12.541,7.352,10.058,3.155c-9.975-16.773-19.755-32.441-28.902-46.876
		c-9.174-14.421-17.615-27.68-24.981-39.628c-7.368-11.94-13.582-22.656-18.137-32.012c-4.605-9.313-7.495-17.332-8.91-23.128
		c-0.179-0.723-0.347-1.404-0.504-2.042c-0.128-0.655-0.247-1.266-0.357-1.832c-0.228-1.128-0.4-2.085-0.49-2.881
		c-0.209-1.573-0.317-2.385-0.317-2.385c-0.545-4.102,2.339-7.869,6.441-8.414c4.016-0.533,7.711,2.22,8.375,6.186l0.084,0.509
		c0,0,0.1,0.601,0.293,1.764c0.076,0.579,0.233,1.307,0.437,2.175c0.096,0.433,0.2,0.901,0.312,1.402
		c0.142,0.504,0.293,1.043,0.454,1.615c1.258,4.569,3.87,11.357,8.372,19.841c4.478,8.48,10.637,18.676,18.125,30.278
		c7.469,11.612,16.233,24.634,25.601,39.029c9.387,14.385,19.476,30.078,29.797,46.916c2.577,4.201-9.83-3.067-9.83-3.067
		l0.243,0.409c0.106,0.176,0.25,0.466,0.37,0.696c0.475,0.978-8.966-8.03-8.646-7.019c1.492,4.083,1.689,8.144,1.348,11.648
		c-0.359,3.524,8.818,6.683,7.844,9.672c-1.031,2.919-2.188,5.728-3.503,8.349c-2.59,5.301-15.607,10.144-18.801,14.834
		c6.122-8.921,25.484-61.056,8.839-42.568c-7.585,8.392-15.614,16.465-23.923,24.333c-16.631,15.725-34.364,30.664-53.026,44.563
		c-9.349,6.933-18.921,13.611-29.022,19.693c-5.056,3.042-10.23,5.951-15.709,8.604c-2.765,1.309-5.6,2.561-8.629,3.682
		l-2.339,0.801c-0.795,0.258-1.644,0.487-2.465,0.726c-0.824,0.237-1.764,0.42-2.642,0.622c-0.382,0.099-1.075,0.193-1.629,0.275
		c-0.584,0.083-1.17,0.157-1.754,0.222l-1.088,0.062l-0.526,0.027c0.385-0.005-0.779,0.025-0.95,0.01l-0.683-0.037
		c-0.882-0.036-1.881-0.232-2.824-0.464c-0.964-0.292-1.933-0.63-2.81-1.115c-0.919-0.46-1.676-1.013-2.437-1.599
		c-0.656-0.569-1.36-1.211-1.841-1.801c-1.1-1.243-1.765-2.384-2.382-3.504c-1.132-2.189-1.711-4.072-2.192-5.843
		c-0.464-1.765-0.764-3.396-1.021-4.989c-0.501-3.174-0.763-6.139-0.98-9.054c-0.211-2.911-5.562,17.046-10.42-1.233
		c-0.311-1.133-0.62-2.263-0.929-3.388c-0.321-1.111-0.612-2.173-0.98-3.359l-0.526-1.734c-0.136-0.427-0.331-0.866-0.488-1.299
		c-0.336-0.871-0.598-1.711-1.112-2.715c-0.455-0.967-0.908-1.93-1.359-2.889c-0.521-0.987-1.04-1.97-1.557-2.949l-0.773-1.467
		l-0.834-1.472c-0.556-0.98-1.109-1.956-1.66-2.928c-4.505-7.788-9.243-15.321-13.758-22.584
		c-9.059-14.543-17.478-27.961-24.186-40.66c-0.422-0.792-0.84-1.577-1.255-2.356c-0.408-0.827-0.812-1.647-1.213-2.46
		c-0.399-0.815-0.795-1.623-1.187-2.424c-0.394-0.803-0.791-1.605-1.091-2.333c-0.648-1.491-1.284-2.956-1.908-4.392
		c-0.312-0.769-0.622-1.53-0.928-2.284c-0.273-0.693-0.543-1.379-0.81-2.058c-2.166-5.423-4.139-10.436-5.895-15.013
		c-3.534-9.138-6.19-16.538-7.916-21.718C226.148,646.074,225.349,643.125,225.349,643.125z"/>
	<path fill="#1768C9" d="M127.654,325.149c0,0-7.552,14.326-18.668,16.179c-14.934,2.489-26.135-2.489-26.135-2.489
		s13.69,11.201,36.091,13.69C118.942,352.529,128.032,332.421,127.654,325.149z"/>
	<path fill="#1768C9" d="M158.767,181.029c0,0,49.649-0.055,94.584,18.668c44.803,18.668,74.671,58.493,82.138,151.832
		c0,0,37.336-52.27,70.938-34.847s9.956,92.095-4.978,116.985c-14.934,24.89-36.091,42.314-47.292,37.336
		c0,0,24.577,87.38,48.223,132.183c0,0,156.106-95.875,195.703-226.767c44.803-148.098-39.828-298.956-242.682-296.196
		c-182.945,2.489-196.634,72.182-196.634,72.182C157.168,157.736,158.767,181.029,158.767,181.029z"/>
	<path fill="#1768C9" d="M661.38,51.186c-67.98,62.12-116,80-116,80c14,8,23,19,35,34c23.038,28.797,27,57,27,57
		c115-73,184.41,104.02-8,345c-103,129-221.51,147.78-441,282c-107.9,65.98-130.48,112.5-158.38,154h210.6
		c109.289-160.429,329.756-283.182,354.78-306c189.67-172.95,181-363,187-411c0,87,11.215,274.492-268,530
		c-106,97-126.2,158.86-131.49,187h323.64c186.41-304.04,201.64-661.94,180.85-791c-13.13-81.5-64.99-163.99-196.97-102.02
		c2.2-1.7,131.35-99.93,205.97,66.02c51.46,114.45,67.5,527.23-21.73,827h106.73v-799.61C868.64,6.686,776.91-54.384,661.38,51.186z
		"/>
</g>
</svg>
