<?xml version="1.0" standalone="no"?>
<!DOCTYPE svg PUBLIC "-//W3C//DTD SVG 20010904//EN"
 "http://www.w3.org/TR/2001/REC-SVG-20010904/DTD/svg10.dtd">
<svg version="1.0" xmlns="http://www.w3.org/2000/svg"
 width="542.000000pt" height="542.000000pt" viewBox="0 0 542.000000 542.000000"
 preserveAspectRatio="xMidYMid meet">
<metadata>
Created by potrace 1.11, written by Peter Selinger 2001-2013
</metadata>
<g transform="translate(0.000000,542.000000) scale(0.100000,-0.100000)"
fill="#000000" stroke="none">
<path d="M4310 5404 c-135 -29 -284 -117 -460 -272 -188 -167 -358 -289 -518
-375 l-80 -43 55 -49 c112 -98 220 -259 254 -375 17 -61 21 -64 60 -40 55 33
155 60 228 60 202 0 331 -193 331 -493 0 -330 -170 -771 -462 -1194 -260 -378
-515 -628 -865 -846 l-41 -26 -99 152 c-113 172 -173 277 -173 299 0 8 46 49
103 91 438 321 755 710 876 1072 45 136 63 236 68 388 12 300 -58 541 -223
759 -71 95 -133 155 -239 231 -78 55 -238 135 -332 166 -248 80 -565 99 -913
55 -278 -35 -505 -120 -618 -232 -76 -75 -92 -111 -92 -205 l0 -76 43 -5 c172
-20 230 -30 314 -52 373 -97 524 -304 588 -807 l6 -48 79 75 c85 81 113 99
184 117 85 21 171 -31 196 -119 26 -95 -1 -276 -64 -432 -61 -150 -191 -290
-269 -290 -22 0 -27 -4 -23 -17 69 -227 93 -300 136 -413 29 -74 61 -168 72
-209 25 -95 88 -220 204 -403 l93 -147 -87 -49 c-48 -27 -219 -118 -381 -203
-267 -138 -296 -151 -305 -135 -6 10 -50 79 -99 154 -48 75 -117 194 -152 263
-61 118 -154 243 -169 228 -8 -8 74 -229 116 -313 16 -32 72 -128 125 -214 52
-86 97 -162 100 -168 3 -7 -33 -32 -84 -60 -276 -149 -606 -343 -779 -457
-302 -201 -504 -412 -669 -699 l-27 -48 564 0 564 0 96 128 c327 436 789 838
1550 1350 224 150 271 187 371 286 308 307 531 640 680 1016 113 283 167 534
206 955 l8 90 2 -85 c2 -123 -16 -347 -39 -485 -93 -555 -375 -1111 -845
-1665 -54 -63 -274 -290 -490 -505 -464 -462 -561 -578 -679 -812 -35 -71 -96
-241 -96 -269 0 -2 391 -4 869 -4 l870 0 49 83 c434 723 757 1681 892 2647 87
626 91 1297 10 1638 -56 235 -177 420 -328 500 -101 54 -160 65 -301 59 -125
-5 -187 -18 -308 -65 -29 -11 -53 -18 -53 -16 0 11 151 77 227 100 234 68 455
6 624 -174 236 -252 340 -606 410 -1397 17 -194 23 -983 10 -1242 -37 -720
-131 -1373 -281 -1948 -21 -82 -42 -158 -45 -167 -7 -17 11 -18 279 -18 l286
0 -2 2172 -3 2173 -96 195 c-153 308 -270 489 -413 639 -191 198 -384 271
-596 225z"/>
<path d="M1099 4308 c-40 -56 -82 -139 -104 -208 -14 -44 -18 -93 -19 -240 -1
-167 -3 -188 -22 -220 -29 -51 -65 -65 -132 -53 -48 9 -53 8 -36 -4 10 -7 45
-23 76 -35 l58 -21 -19 -26 c-27 -36 -172 -176 -261 -251 -41 -35 -78 -72 -83
-83 -16 -41 66 -130 157 -173 77 -36 94 -31 46 12 -22 20 -57 59 -77 87 l-37
50 34 26 c210 159 330 292 330 365 0 14 9 42 20 63 23 46 28 144 16 319 -10
140 2 213 58 352 18 45 32 82 30 82 -2 0 -18 -19 -35 -42z"/>
<path d="M715 2838 c-38 -33 -74 -66 -78 -75 -14 -24 1 -76 31 -113 26 -31 28
-36 15 -59 -7 -14 -13 -34 -13 -44 0 -33 30 -90 70 -134 30 -32 39 -49 35 -65
-8 -37 -35 -269 -35 -305 0 -24 10 -44 34 -71 33 -36 37 -37 114 -40 62 -3
129 5 303 37 123 23 242 46 264 51 43 10 -289 6 -485 -6 -155 -9 -149 -18
-123 196 14 107 19 180 13 193 -4 12 -29 44 -54 70 -51 53 -55 70 -26 107 20
25 27 70 12 70 -4 0 -25 16 -46 35 -45 41 -44 51 9 145 20 35 34 64 33 65 -2
1 -34 -25 -73 -57z"/>
</g>
</svg>
