<?xml version="1.0" encoding="utf-8"?>
<!-- Generator: Adobe Illustrator 22.1.0, SVG Export Plug-In . SVG Version: 6.00 Build 0)  -->
<svg version="1.2" baseProfile="tiny" id="Слой_1"
	 xmlns="http://www.w3.org/2000/svg" xmlns:xlink="http://www.w3.org/1999/xlink" x="0px" y="0px" viewBox="0 0 85.4 85.5"
	 xml:space="preserve">
<path d="M63.5,57.2L41.8,44.7c0,0,0,0-0.1,0s-0.1-0.1-0.2-0.2c-0.1,0-0.1-0.1-0.2-0.1c-0.1-0.1-0.1-0.1-0.2-0.2
	C41,44.1,41,44.1,40.9,44c0-0.1-0.1-0.1-0.1-0.2c0-0.1-0.1-0.1-0.1-0.2c0-0.1-0.1-0.2-0.1-0.2c0-0.1-0.1-0.1-0.1-0.2
	c0-0.1,0-0.2,0-0.2c0-0.1,0-0.2,0-0.3v-0.1V2.5C40.5,1.1,41.6,0,43,0c7.5,0,14.8,2,21.2,5.7S76,14.8,79.7,21.2l0,0
	c3.7,6.4,5.7,13.8,5.7,21.2c0,7.5-2,14.8-5.7,21.2c-0.5,0.8-1.3,1.2-2.2,1.2c-0.4,0-0.9-0.1-1.2-0.3c-1.2-0.7-1.6-2.2-0.9-3.4
	c3.3-5.7,5-12.2,5-18.7c0-6.6-1.7-13.1-5-18.7l0,0c-3.3-5.7-8-10.4-13.7-13.7c-5-2.9-10.5-4.6-16.2-4.9v36l20.4,11.8
	c1.2,0.7,1.6,2.2,0.9,3.4c-0.5,0.8-1.3,1.2-2.2,1.2C64.3,57.5,63.8,57.4,63.5,57.2z"/>
<path d="M21.6,5.3c0.5-0.3,1-0.4,1.5-0.4l0,0c1.1,0,2.1,0.6,2.6,1.5c0.4,0.7,0.5,1.5,0.3,2.3c-0.2,0.8-0.7,1.4-1.4,1.8
	c-0.5,0.3-1,0.4-1.5,0.4c-1.1,0-2.1-0.6-2.6-1.5c-0.4-0.7-0.5-1.5-0.3-2.3C20.4,6.3,20.9,5.7,21.6,5.3z"/>
<path d="M8.4,25.5c-0.5,0-1-0.1-1.5-0.4C5.5,24.3,5,22.4,5.8,21c0.5-0.9,1.5-1.5,2.6-1.5l0,0c0.5,0,1,0.1,1.5,0.4
	c1.4,0.8,1.9,2.7,1.1,4.1C10.5,24.9,9.5,25.5,8.4,25.5z"/>
<circle cx="43" cy="82.5" r="3"/>
<circle cx="3" cy="42.5" r="3"/>
<path d="M61.6,74.5c0.5-0.3,1-0.4,1.5-0.4l0,0c1.1,0,2.1,0.6,2.6,1.5c0.4,0.7,0.5,1.5,0.3,2.3s-0.7,1.4-1.4,1.8
	c-0.5,0.3-1,0.4-1.5,0.4c-1.1,0-2.1-0.6-2.6-1.5c-0.4-0.7-0.5-1.5-0.3-2.3C60.4,75.6,60.9,74.9,61.6,74.5z"/>
<path d="M6.9,59.9c0.5-0.3,1-0.4,1.5-0.4l0,0c1.1,0,2.1,0.6,2.6,1.5c0.8,1.4,0.3,3.3-1.1,4.1c-0.5,0.3-1,0.4-1.5,0.4
	c-1.1,0-2.1-0.6-2.6-1.5C5,62.6,5.5,60.7,6.9,59.9z"/>
<path d="M23.1,74.1L23.1,74.1c0.5,0,1,0.1,1.5,0.4c0.7,0.4,1.2,1,1.4,1.8s0.1,1.6-0.3,2.3c-0.5,0.9-1.5,1.5-2.6,1.5
	c-0.5,0-1-0.1-1.5-0.4c-0.7-0.4-1.2-1-1.4-1.8s-0.1-1.6,0.3-2.3C21,74.7,22,74.1,23.1,74.1z"/>
</svg>
