<?xml version="1.0" encoding="UTF-8" standalone="no"?>
<!-- Generator: Adobe Illustrator 22.1.0, SVG Export Plug-In . SVG Version: 6.00 Build 0)  -->

<svg
   xmlns:dc="http://purl.org/dc/elements/1.1/"
   xmlns:cc="http://creativecommons.org/ns#"
   xmlns:rdf="http://www.w3.org/1999/02/22-rdf-syntax-ns#"
   xmlns:svg="http://www.w3.org/2000/svg"
   xmlns="http://www.w3.org/2000/svg"
   xmlns:sodipodi="http://sodipodi.sourceforge.net/DTD/sodipodi-0.dtd"
   xmlns:inkscape="http://www.inkscape.org/namespaces/inkscape"
   version="1.2"
   id="Слой_1"
   x="0px"
   y="0px"
   viewBox="0 0 50 50"
   xml:space="preserve"
   inkscape:version="0.91 r13725"
   sodipodi:docname="icon-menu-9.svg"
   width="50"
   height="50"><metadata
     id="metadata13"><rdf:RDF><cc:Work
         rdf:about=""><dc:format>image/svg+xml</dc:format><dc:type
           rdf:resource="http://purl.org/dc/dcmitype/StillImage" /><dc:title></dc:title></cc:Work></rdf:RDF></metadata><defs
     id="defs11" /><sodipodi:namedview
     pagecolor="#ffffff"
     bordercolor="#666666"
     borderopacity="1"
     objecttolerance="10"
     gridtolerance="10"
     guidetolerance="10"
     inkscape:pageopacity="0"
     inkscape:pageshadow="2"
     inkscape:window-width="1920"
     inkscape:window-height="1017"
     id="namedview9"
     showgrid="false"
     fit-margin-top="0"
     fit-margin-left="0"
     fit-margin-right="0"
     fit-margin-bottom="0"
     inkscape:zoom="5.9"
     inkscape:cx="33.234771"
     inkscape:cy="30.531958"
     inkscape:window-x="-8"
     inkscape:window-y="-8"
     inkscape:window-maximized="1"
     inkscape:current-layer="Слой_1" /><g
     id="g3"
     style="fill:#000000"
     transform="matrix(1.6666667,0,0,1.6666667,-69.033192,-401.66667)"><path
       d="m 54.75,267.874 c 0,-1.035 -0.84,-1.875 -1.875,-1.875 -1.035,0 -1.875,0.841 -1.875,1.875 0,1.036 0.84,1.875 1.875,1.875 1.035,0 1.875,-0.838 1.875,-1.875 z m -1.875,0.626 c -0.345,0 -0.625,-0.28 -0.625,-0.625 0,-0.344 0.28,-0.624 0.625,-0.624 0.345,0 0.625,0.28 0.625,0.624 0,0.345 -0.28,0.625 -0.625,0.625 z"
       id="path5"
       style="fill:#000000"
       inkscape:connector-curvature="0" /><path
       d="m 66.912,259.203 -0.28,0.125 c -1.428,-7.474 -2.87,-10.255 -3.049,-10.579 -0.267,-0.576 -0.762,-0.99 -1.333,-1.14 l 0,-4.109 c 0,-1.381 -1.12,-2.5 -2.5,-2.5 l -13.125,0 c -1.381,0 -2.5,1.119 -2.5,2.5 l 0,25 c 0,1.381 1.12,2.5 2.5,2.5 l 13.125,0 c 1.381,0 2.5,-1.12 2.5,-2.5 l 0,-1.735 6.703,-2.997 -2.041,-4.565 z M 61.485,248.86 c 0.095,-0.043 0.193,-0.065 0.29,-0.065 0.285,0 0.545,0.188 0.68,0.49 l 0.013,0.029 0.016,0.027 c 0.016,0.027 1.504,2.682 2.976,10.511 l -7.562,3.382 -0.379,-0.42 -7.119,-3.855 c -0.236,-0.128 -0.407,-0.339 -0.482,-0.595 -0.076,-0.256 -0.045,-0.527 0.085,-0.764 0.179,-0.327 0.523,-0.529 0.897,-0.529 0.169,0 0.331,0.04 0.48,0.121 l 3.121,1.692 -5.147,-11.508 c -0.108,-0.24 -0.038,-0.476 0.013,-0.594 0.092,-0.213 0.261,-0.388 0.465,-0.479 0.114,-0.051 0.244,-0.078 0.378,-0.078 0.284,0 0.631,0.132 0.763,0.428 l 2.196,4.909 0,0 1.052,2.352 0,0 c 0.001,0.004 0.003,0.007 0.004,0.011 0.141,0.315 0.51,0.456 0.826,0.315 0.315,-0.141 0.456,-0.51 0.315,-0.825 -0.002,-0.004 -0.004,-0.006 -0.005,-0.01 l 0,0 -1.065,-2.381 c -0.101,-0.226 -0.02,-0.467 0.038,-0.591 0.106,-0.226 0.295,-0.417 0.505,-0.512 0.018,-0.008 0.037,-0.015 0.055,-0.022 l 0.03,-0.012 c 0.118,-0.05 0.255,-0.076 0.396,-0.076 0.302,0 0.662,0.125 0.787,0.406 l 1.064,2.378 0,0 c 10e-4,0.003 0.002,0.007 0.004,0.01 0.141,0.315 0.511,0.456 0.826,0.315 0.315,-0.141 0.456,-0.51 0.315,-0.826 -0.002,-0.003 -0.004,-0.006 -0.006,-0.01 l 10e-4,0 -0.634,-1.419 0,0 c -0.161,-0.361 0.112,-0.909 0.551,-1.105 0.121,-0.054 0.262,-0.082 0.408,-0.082 0.298,0 0.657,0.126 0.784,0.408 l 0.282,0.632 0,0 0.352,0.786 10e-4,0 c 10e-4,0.003 0.003,0.007 0.005,0.01 0.141,0.315 0.51,0.456 0.826,0.315 0.315,-0.141 0.456,-0.51 0.315,-0.826 -0.002,-0.003 -0.004,-0.006 -0.006,-0.01 l 10e-4,0 -0.352,-0.787 0,0 c -0.152,-0.342 0.183,-0.941 0.641,-1.146 z m -11.68,11.198 1.82,0.986 0,1.206 -3.75,0 0,-3.75 0.791,0 c 0.014,0.073 0.031,0.146 0.052,0.218 0.17,0.576 0.556,1.053 1.087,1.34 z m -1.93,-4.683 0,-3.75 2.01,0 1.677,3.75 -3.687,0 z m 0.337,-7.489 0.275,0.614 -0.612,0 0,-3.75 3.75,0 0,0.739 c -0.374,-0.325 -0.876,-0.515 -1.416,-0.515 -0.308,0 -0.615,0.065 -0.888,0.187 -0.487,0.218 -0.889,0.629 -1.103,1.127 -0.228,0.53 -0.23,1.097 -0.006,1.598 z m 6.538,0.614 0,-3.75 3.75,0 0,3.48 c -0.274,0.016 -0.542,0.08 -0.782,0.187 -0.056,0.025 -0.11,0.054 -0.164,0.083 l -2.804,0 0,0 z m -9.375,-5 c 0,-0.689 0.561,-1.25 1.25,-1.25 l 13.125,0 c 0.689,0 1.25,0.561 1.25,1.25 l 0,4.209 c -0.008,0.004 -0.016,0.007 -0.026,0.011 -0.409,0.183 -0.778,0.509 -1.036,0.905 -0.06,-0.043 -0.123,-0.082 -0.188,-0.118 l 0,-4.382 c 0,-0.345 -0.279,-0.625 -0.625,-0.625 l -5,0 c -0.345,0 -0.625,0.28 -0.625,0.625 l 0,5 c 0,0.06 0.009,0.117 0.024,0.172 l -0.649,-1.451 0,-3.721 c 0,-0.345 -0.28,-0.625 -0.625,-0.625 l -5,0 c -0.345,0 -0.625,0.28 -0.625,0.625 l 0,5 c 0,0.345 0.28,0.625 0.625,0.625 l 1.796,0 0.28,0.625 -2.076,0 c -0.345,0 -0.625,0.28 -0.625,0.625 l 0,5 c 0,0.345 0.28,0.625 0.625,0.625 l 1.913,0 c -0.097,0.114 -0.183,0.238 -0.256,0.373 -0.045,0.082 -0.085,0.167 -0.119,0.252 l -1.538,0 c -0.345,0 -0.625,0.28 -0.625,0.625 l 0,5 c 0,0.345 0.28,0.625 0.625,0.625 l 5,0 c 0.345,0 0.625,-0.28 0.625,-0.625 l 0,-1.154 0.625,0.339 0,0.816 c 0,0.345 0.28,0.625 0.625,0.625 l 2.035,0 0.518,0.28 -0.107,0.048 0.412,0.922 -11.608,0 0,-21.251 z M 61,268.5 c 0,0.689 -0.56,1.25 -1.25,1.25 l -6.875,0 -6.25,0 c -0.689,0 -1.25,-0.56 -1.25,-1.25 l 0,-2.5 7.5,0 4.667,0 1.07,2.393 2.388,-1.069 0,1.176 z m -1.758,-1.759 -1.02,-2.282 8.058,-3.604 1.022,2.282 -8.06,3.604 z"
       id="path7"
       style="fill:#000000"
       inkscape:connector-curvature="0" /></g></svg>