<svg xmlns="http://www.w3.org/2000/svg" version="1.2" viewBox="0 0 50 50"><path d="M44.437 15.6L28.907.073A.25.25 0 0 0 28.734 0H11.337a5.566 5.566 0 0 0-5.56 5.56v38.88a5.566 5.566 0 0 0 5.56 5.56h27.554c3.036 0 5.557-2.493 5.618-5.56V15.776a.244.244 0 0 0-.072-.177zM8.373 5.56a2.968 2.968 0 0 1 2.964-2.963h16.36l14.159 14.158v27.682a2.968 2.968 0 0 1-2.964 2.964H11.337a2.968 2.968 0 0 1-2.964-2.964V5.561z"/><path d="M30.076 16.785h9.049l-9.749-9.749v9.05c0 .407.292.699.7.699zM13.44 18.267h6.362a1.383 1.383 0 0 0 0-2.764h-6.363c-.76 0-1.38.62-1.38 1.38 0 .763.618 1.384 1.38 1.384zM13.44 27.431h10.624c.761 0 1.381-.62 1.381-1.38 0-.761-.618-1.382-1.38-1.382H13.438c-.76 0-1.38.62-1.38 1.381s.618 1.381 1.38 1.381zM13.44 32.393h6.362c.76 0 1.381-.62 1.381-1.38 0-.762-.619-1.382-1.381-1.382h-6.363c-.76 0-1.38.62-1.38 1.381 0 .76.618 1.381 1.38 1.381zM13.44 37.357h19.09a1.383 1.383 0 0 0 0-2.764H13.44a1.383 1.383 0 0 0 0 2.764z"/></svg>