<svg xmlns="http://www.w3.org/2000/svg" version="1.2" viewBox="0 0 50 50"><g transform="matrix(1.66666 0 0 1.66666 5.339 0)"><circle cx="7.036" cy="16.132" r=".899"/><circle cx="16.408" cy="16.132" r=".899"/><path d="M11.265 19.22a.464.464 0 0 0-.927 0c0 .892.726 1.619 1.619 1.619.892 0 1.619-.726 1.619-1.619a.464.464 0 0 0-.928 0 .692.692 0 0 1-1.383 0z"/><path d="M23.585 12.382c-.074-5.018-2.107-9.009-5.577-10.952C15.252-.113 10.963-.446 7.58.62a.68.68 0 1 0 .408 1.3c2.579-.811 6.62-.831 9.354.699 3.034 1.698 4.813 5.264 4.879 9.782.081 5.486-.913 8.146-1.804 9.423-.458-.12-1.297-.295-2.089-.271a3.806 3.806 0 0 1-.19-.939c1.175-1.28 1.6-2.76 1.754-3.675.226.044.442.066.656.066a.683.683 0 0 0 0-1.364c-2.951 0-4.425-5.89-4.44-5.95a.683.683 0 1 0-1.271-.153c-.715 1.4-.693 2.591-.475 3.455-2.274-1.086-3.291-3.454-3.301-3.48a.684.684 0 0 0-.75-.409.678.678 0 0 0-.56.643c-.049 1.188.173 2.115.436 2.779-3.038-1.229-3.706-4.647-3.734-4.801a.681.681 0 0 0-1.352.146c.183 5.992-.875 7.701-1.339 8.158-.176.174-.299.209-.375.222a.682.682 0 0 0-.138 1.354c.049.008.36.055.799-.14.16.879.537 2.024 1.406 3.061a3.768 3.768 0 0 1-.195 1.026c-.794-.028-1.63.151-2.086.271-.891-1.277-1.886-3.936-1.804-9.422.063-4.309 1.723-7.611 4.933-9.815a.683.683 0 0 0-.262-1.232.683.683 0 0 0-.511.109C3.057 3.16.092 6.432.005 12.382c-.121 8.112 2.038 10.773 3.504 11.644-.654 1.05-1.252 3.021.685 5.693a.695.695 0 0 0 .853.211c.083-.041 2.043-1.038 2.043-3.555 0-1.414-.805-2.309-1.412-2.783a5.292 5.292 0 0 0 .981-1.97c.804.556 1.763.946 2.861 1.162-1.392 1.972-1.466 4.288-1.469 4.391a.686.686 0 0 0 .682.699.68.68 0 0 0 .682-.664c0-.019.066-1.798 1.038-3.368.383.565.906.871 1.504.871.606 0 1.122-.319 1.484-.907 1 1.586 1.058 3.382 1.058 3.403.011.373.31.664.7.664a.685.685 0 0 0 .664-.699c-.003-.106-.088-2.481-1.517-4.457.978-.223 1.847-.583 2.591-1.076.148.563.432 1.266.975 1.95-.607.474-1.412 1.369-1.412 2.783 0 2.517 1.96 3.514 2.045 3.555a.684.684 0 0 0 .851-.21c1.938-2.67 1.34-4.642.685-5.693 1.465-.871 3.625-3.532 3.504-11.644zM5.726 26.376c0 .988-.439 1.619-.805 1.972-1.131-1.904-.593-3.166-.17-3.749.427.304.975.872.975 1.777zm6.531-12.5a.68.68 0 0 0-.037-.645c.841.697 1.934 1.313 3.306 1.556a.68.68 0 1 0 .635-1.116c-.005-.006-.32-.386-.476-1.037.602 1.36 1.554 2.968 2.911 3.797-.108 1.153-.908 5.194-6.821 5.194-2.272 0-3.985-.592-5.09-1.758-1.354-1.431-1.391-3.308-1.386-3.648.626-1.106 1.008-2.839 1.137-5.159.942 1.417 2.531 2.899 5.126 3.207a.686.686 0 0 0 .695-.391zm.083 9.099c-.115.24-.25.377-.383.377-.181 0-.327-.178-.431-.367.271.01.551.003.814-.01zm6.499 1.624c.423.583.961 1.844-.171 3.749-.366-.353-.805-.984-.805-1.972 0-.905.549-1.473.976-1.777zm.32-1.64l.017.003-.011.005-.006-.008z"/></g></svg>