<svg xmlns="http://www.w3.org/2000/svg" version="1.2" viewBox="0 0 50 50"><path d="M22.217 44.79a3.126 3.126 0 0 0-6.25 0 3.125 3.125 0 0 0 6.25 0zm-3.125 1.043a1.042 1.042 0 1 1 0-2.084 1.042 1.042 0 0 1 0 2.084z"/><path d="M42.487 30.337l-.467.208c-2.38-12.457-4.783-17.092-5.082-17.632-.445-.96-1.27-1.65-2.221-1.9V4.167A4.167 4.167 0 0 0 30.55 0H8.675a4.167 4.167 0 0 0-4.167 4.167v41.666c0 2.3 1.867 4.167 4.167 4.167H30.55a4.167 4.167 0 0 0 4.167-4.167v-2.891l11.171-4.995-3.401-7.61zM33.442 13.1a1.17 1.17 0 0 1 .483-.108c.475 0 .908.313 1.133.816l.022.049.027.045c.026.045 2.506 4.47 4.96 17.518l-12.604 5.637-.631-.7-11.865-6.425a1.648 1.648 0 0 1-.804-.992 1.652 1.652 0 0 1 .142-1.273 1.701 1.701 0 0 1 2.295-.68l5.202 2.82-8.579-19.18c-.18-.402-.063-.794.02-.99.154-.355.435-.647.775-.799.19-.086.409-.131.63-.131.474 0 1.052.22 1.272.713l3.66 8.182 1.753 3.92.007.018c.235.525.85.76 1.377.525.525-.235.76-.85.525-1.375-.004-.007-.007-.01-.009-.017l-1.775-3.968c-.168-.377-.033-.778.064-.985.176-.377.491-.695.841-.853.03-.014.062-.025.092-.037l.05-.02c.197-.083.425-.127.66-.127.503 0 1.103.209 1.312.677l1.773 3.963c.002.005.003.012.007.017a1.042 1.042 0 0 0 1.901-.852l-.01-.016h.002l-1.057-2.365c-.268-.602.187-1.515.919-1.842a1.68 1.68 0 0 1 .68-.137c.496 0 1.095.21 1.306.68l.47 1.054.587 1.31h.002a1.042 1.042 0 1 0 1.91-.835l-.01-.017h.001l-.586-1.312c-.252-.568.306-1.566 1.07-1.908zM13.975 31.763l3.033 1.644v2.01h-6.25v-6.25h1.319a3.721 3.721 0 0 0 1.898 2.597zm-3.217-7.805v-6.25h3.35l2.795 6.25h-6.145zm.562-12.481l.458 1.023h-1.02V6.25h6.25v1.232a3.594 3.594 0 0 0-2.36-.859c-.513 0-1.025.109-1.48.312a3.656 3.656 0 0 0-1.838 1.878c-.38.884-.383 1.829-.01 2.664zM22.217 12.5V6.25h6.25v5.8a3.755 3.755 0 0 0-1.304.312 3.788 3.788 0 0 0-.271.138h-4.675zM6.592 4.167c0-1.149.935-2.084 2.083-2.084H30.55c1.148 0 2.083.935 2.083 2.084v7.015l-.043.018c-.682.305-1.297.848-1.727 1.508a3.19 3.19 0 0 0-.313-.196V5.208c0-.575-.465-1.041-1.042-1.041h-8.333c-.575 0-1.042.466-1.042 1.041v8.334c0 .1.015.195.04.286l-1.081-2.42v-6.2c0-.575-.467-1.041-1.042-1.041H9.717c-.575 0-1.042.466-1.042 1.041v8.334c0 .575.467 1.041 1.042 1.041h2.993l.467 1.042h-3.46c-.575 0-1.042.467-1.042 1.042V25c0 .575.467 1.042 1.042 1.042h3.188a3.846 3.846 0 0 0-.625 1.042H9.717c-.575 0-1.042.466-1.042 1.041v8.333c0 .575.467 1.042 1.042 1.042h8.333c.575 0 1.042-.467 1.042-1.042v-1.925l1.041.565v1.36c0 .575.467 1.042 1.042 1.042h3.392l.863.467-.178.08.686 1.536H6.592V4.167zm26.041 41.666a2.085 2.085 0 0 1-2.083 2.084H8.675a2.085 2.085 0 0 1-2.083-2.084v-4.166H26.87l1.783 3.988 3.98-1.78v1.958zm-2.93-2.931l-1.7-3.804 13.43-6.006 1.704 3.803-13.434 6.007z"/></svg>