<svg xmlns="http://www.w3.org/2000/svg" version="1.2" viewBox="0 0 50 50"><path d="M29.618 24.04a6.049 6.049 0 1 0 0-12.097 6.049 6.049 0 0 0 0 12.097zm0-9.215a3.168 3.168 0 1 1 0 6.337 3.168 3.168 0 0 1 0-6.337z"/><path d="M50 35.27c-.018.007-.032.019-.048.025V12.46c0-3.822-3.155-6.92-7.045-6.92H10.638l.004-.025H7.753l-.003.025h-.705C3.155 5.539 0 8.637 0 12.459v25.466c0 3.822 3.155 6.92 7.045 6.92h35.86c3.81.002 6.932-2.971 7.045-6.713.017-.003.032-.01.048-.012v-2.85zm-2.382 3.169a4.32 4.32 0 0 1-4.32 4.32H6.652a4.32 4.32 0 0 1-4.32-4.32v-3.815l13.606-9.935 12.815 11.16c.259.228.592.356.937.36l.72-.217 17.207-10.08v12.527zm0-15.839L29.835 33.04 16.948 21.737a1.44 1.44 0 0 0-1.8-.073l-12.815 9.36V11.945a4.32 4.32 0 0 1 4.32-4.32h36.645a4.32 4.32 0 0 1 4.32 4.32V22.6z"/></svg>