<svg xmlns="http://www.w3.org/2000/svg" version="1.2" viewBox="0 0 50 50"><path d="M42.045 32.428c-.688-3.768-1.928-7.257-3.688-10.372-2.844-4.981-3.082-8.388-3.082-11.19 0-2.255.322-4.451.957-6.528a1.114 1.114 0 0 0-.739-1.39 1.118 1.118 0 0 0-1.39.738c-.7 2.284-1.053 4.7-1.053 7.18 0 3.089.262 6.84 3.372 12.29 1.111 1.969 2.011 4.137 2.68 6.454-1.89.91-7.745 3.495-13.519 3.675h-1.128c-5.797-.18-11.658-2.765-13.553-3.677a30.017 30.017 0 0 1 2.676-6.448c3.114-5.454 3.375-9.205 3.375-12.295 0-2.477-.355-4.894-1.053-7.18a1.12 1.12 0 0 0-1.392-.737c-.586.18-.916.803-.736 1.39a22.27 22.27 0 0 1 .955 6.528c0 2.804-.239 6.21-3.085 11.195-1.759 3.112-2.999 6.6-3.687 10.372l.563.103-.581.004a37.4 37.4 0 0 0 .048 13.351c.1.525.56.907 1.095.907l.205-.018a1.117 1.117 0 0 0 .89-1.3 34.714 34.714 0 0 1-.243-11.347c1.423.435 3.998 1.372 6.473 3.035a19.815 19.815 0 0 1 3.205 2.682c1.388 1.61 2.522 5.596 2.522 6.248a1.114 1.114 0 0 0 2.227 0c0-.517-.272-1.743-.736-3.12.212.04.429.06.65.06h1.457c.222 0 .438-.02.65-.06-.463 1.377-.735 2.605-.735 3.12a1.114 1.114 0 0 0 2.227 0c0-.652 1.131-4.638 2.496-6.222a19.836 19.836 0 0 1 3.23-2.708c2.467-1.658 5.045-2.597 6.472-3.033a34.75 34.75 0 0 1-.243 11.345c-.055.291.006.588.176.835.169.245.422.41.707.463l.212.02c.535 0 .995-.382 1.095-.908.816-4.36.833-8.977.056-13.242l-.028-.22zm-2.418-.49c-.225.067-.48.145-.762.238.273-.12.518-.233.737-.335l.025.097zm-10.849 6.377c-.303.31-.576.601-.821.865-1.13 1.208-1.584 1.631-2.229 1.631H24.27c-.645 0-1.098-.423-2.228-1.631a43.829 43.829 0 0 0-.807-.847 4.389 4.389 0 0 0-.447-.45 22.182 22.182 0 0 0-3.143-2.563 25.355 25.355 0 0 0-3.27-1.85c2.793.988 6.357 1.925 10.025 2.04h1.215c3.68-.115 7.305-1.09 10.082-2.075-1.065.5-2.21 1.121-3.345 1.885a21.628 21.628 0 0 0-3.057 2.483c-.183.15-.36.333-.517.512zm-17.67-6.147c-.273-.09-.52-.167-.74-.23l.024-.097c.22.102.46.212.716.327z"/><path d="M24.907 26.261c.665 0 1.206-.541 1.206-1.206 0-.665-.541-1.207-1.206-1.207a1.206 1.206 0 1 0 0 2.413zM8.39 20.206l3.065-1.831a1.113 1.113 0 0 0 0-1.91l-3.063-1.829a1.114 1.114 0 1 0-1.687.955v.717H1.113a1.114 1.114 0 0 0 0 2.227h5.592v.716a1.113 1.113 0 0 0 1.685.955zM48.888 16.308h-5.593v-.717a1.113 1.113 0 0 0-1.685-.955l-3.067 1.832c-.333.202-.54.567-.54.955s.207.755.542.955l3.063 1.83a1.116 1.116 0 0 0 1.122.013c.348-.198.565-.568.565-.968v-.72h5.592a1.114 1.114 0 0 0 .002-2.225z"/></svg>