<svg xmlns="http://www.w3.org/2000/svg" version="1.2" viewBox="0 0 50 50"><path d="M17.432 25.58c0 4.717 2.221 8.46 5.686 11.277v5.012l4.805-3.243c1.179.25 3.83.398 5.089.398 8.601 0 14.14-6.017 14.14-13.443 0-7.43-7.107-13.454-14.14-13.454-8.857-.001-15.58 6.02-15.58 13.452zm2.843 20.53v-8.02c-3.713-3.144-5.65-7.533-5.65-12.676 0-8.895 8.207-16.12 18.387-16.12C41.478 9.292 50 16.52 50 25.412c0 8.884-6.833 16.457-16.988 16.457-1.155 0-3.659-.205-4.75-.365l-7.987 4.607zM5.648 41.59v-8.05C1.967 30.387 0 26.037 0 20.88 0 12 8.208 4.767 18.385 4.767c2.848 0 5.683.815 8.218 2.243a22.782 22.782 0 0 0-3.743 1.378c-1.43-.496-2.952-.783-4.475-.783-8.825 0-15.568 6.017-15.568 13.442 0 4.726 2.216 8.475 5.673 11.256v5.03l4.81-3.213a21.987 21.987 0 0 0 1.768 3.025 26.776 26.776 0 0 1-1.433-.175l-7.987 4.622z"/><path d="M32.508 22.83c-.72 0-1.366.292-1.846.74v.027a2.62 2.62 0 0 0-.754 1.829c0 .721.304 1.353.754 1.838a2.567 2.567 0 0 0 3.688 0c.452-.485.748-1.117.748-1.838 0-.727-.295-1.367-.748-1.829v-.026a2.691 2.691 0 0 0-1.842-.74zM25.265 22.83c-.725 0-1.36.292-1.848.74v.027a2.61 2.61 0 0 0-.742 1.829c0 .721.29 1.353.742 1.838.488.488 1.123.78 1.848.78a2.55 2.55 0 0 0 1.842-.78 2.537 2.537 0 0 0 .753-1.838c0-.727-.265-1.367-.753-1.855a2.685 2.685 0 0 0-1.842-.74zM39.75 22.83a2.69 2.69 0 0 0-1.845.74 2.614 2.614 0 0 0-.75 1.856c0 .721.273 1.353.75 1.838a2.573 2.573 0 0 0 3.692 0c.451-.485.75-1.117.75-1.838a2.6 2.6 0 0 0-.75-1.829v-.026a2.71 2.71 0 0 0-1.847-.74z"/></svg>