<svg xmlns="http://www.w3.org/2000/svg" version="1.2" viewBox="0 0 50 50"><path d="M24.87.006a1.101 1.101 0 0 0-.504.192l-2.725 1.84-3.228-.66a1.114 1.114 0 0 0-1.163.468l-1.805 2.76-3.227.624c-.448.085-.8.436-.885.885l-.625 3.228-2.76 1.805a1.109 1.109 0 0 0-.468 1.163l.66 3.228-1.84 2.725a1.11 1.11 0 0 0 0 1.25l1.84 2.709-.66 3.228c-.099.447.088.908.468 1.163l1.562 1.023L.173 42.164a1.11 1.11 0 0 0 1.164 1.683l7.306-1.458 1.943 6.786a1.11 1.11 0 0 0 2.032.277l8.122-13.536.901-.192 2.725 1.84c.182.132.4.203.625.208a1.11 1.11 0 0 0 .625-.208l2.725-1.84.902.192 8.121 13.536a1.111 1.111 0 0 0 2.032-.278l1.943-6.787 7.307 1.459a1.111 1.111 0 0 0 1.163-1.684L40.473 27.62l1.545-1.006c.381-.254.566-.715.468-1.164l-.66-3.228 1.84-2.708a1.11 1.11 0 0 0 0-1.25l-1.84-2.725.66-3.229a1.114 1.114 0 0 0-.468-1.163l-2.76-1.805-.625-3.228a1.113 1.113 0 0 0-.885-.885l-3.229-.625-1.805-2.76a1.109 1.109 0 0 0-1.163-.468l-3.21.66-2.725-1.84a1.116 1.116 0 0 0-.746-.189zm.121 2.447l2.482 1.702c.253.175.566.238.868.173l2.915-.625 1.648 2.517c.167.255.43.43.729.486l2.968.555.555 2.968c.055.3.232.564.487.729l2.516 1.648-.625 2.933c-.065.3-.001.615.174.869l1.7 2.481-1.7 2.465a1.113 1.113 0 0 0-.174.869l.625 2.933-2.516 1.648c-.255.167-.43.43-.487.728l-.555 2.969-2.968.555c-.3.055-.564.231-.729.486l-1.648 2.517-2.915-.625a1.115 1.115 0 0 0-.868.173L24.99 35.31l-2.481-1.702a1.113 1.113 0 0 0-.869-.173l-2.933.625-1.648-2.517a1.119 1.119 0 0 0-.729-.486l-2.968-.555-.555-2.969a1.105 1.105 0 0 0-.487-.728l-2.516-1.648.625-2.933c.065-.3.001-.615-.174-.869L8.555 18.89l1.701-2.481c.175-.254.239-.567.174-.869l-.625-2.933 2.516-1.648c.255-.167.43-.43.487-.729l.555-2.968 2.968-.555c.3-.055.564-.231.729-.486l1.648-2.517 2.933.625c.3.065.615.002.869-.173l2.481-1.702zm0 3.107c-7.348 0-13.33 5.981-13.33 13.33 0 7.348 5.982 13.327 13.33 13.327s13.33-5.981 13.33-13.328c0-7.348-5.982-13.33-13.33-13.33zm0 2.221c6.148 0 11.108 4.96 11.108 11.108 0 6.149-4.96 11.108-11.108 11.108A11.091 11.091 0 0 1 13.883 18.89 11.092 11.092 0 0 1 24.991 7.781zm6.595 4.773l-1.145 1.215-7.22 7.707-3.783-3.367-1.25-1.11-2.222 2.5 1.25 1.094 4.999 4.443 1.215 1.077 1.11-1.18 8.33-8.887 1.144-1.215-2.428-2.277zm7.463 16.973l7.48 11.629-5.761-1.145a1.11 1.11 0 0 0-1.302.781l-1.51 5.312-5.848-9.737c.248-.075.463-.235.606-.451l1.805-2.76 3.229-.625c.448-.085.8-.437.885-.885l.416-2.119zm-28.116.017l.4 2.1c.085.448.437.8.885.885l3.228.625 1.805 2.76c.144.217.359.377.607.452l-5.832 9.736-1.51-5.311a1.113 1.113 0 0 0-1.301-.782l-5.762 1.145 7.48-11.61z"/></svg>