<svg xmlns="http://www.w3.org/2000/svg" version="1.2" viewBox="0 0 50 50"><path d="M25.325 45.925a2.248 2.248 0 0 0 2.245-2.243 2.247 2.247 0 0 0-2.245-2.245 2.246 2.246 0 0 0-2.244 2.245 2.247 2.247 0 0 0 2.244 2.243z"/><path d="M34.835 0H15.816c-2.138 0-3.943 1.805-3.943 3.943v42.115c0 2.137 1.805 3.942 3.943 3.942h19.02c2.137 0 3.944-1.805 3.944-3.942V3.943C38.778 1.805 36.973 0 34.835 0zm-20.51 3.943c0-.836.655-1.491 1.491-1.491h19.02c.837 0 1.492.655 1.492 1.491v3.53H14.325v-3.53zm22.003 5.98v27.435H14.325V9.923h22.003zm0 29.889v6.246c0 .837-.655 1.492-1.492 1.492h-19.02a1.476 1.476 0 0 1-1.491-1.492v-6.246h22.003z"/><path d="M27.363 3.737h-4.075c-.653 0-1.227.573-1.227 1.226 0 .654.574 1.225 1.227 1.225h4.075c.653 0 1.227-.571 1.227-1.225 0-.653-.574-1.226-1.227-1.226z"/></svg>