<svg xmlns="http://www.w3.org/2000/svg" version="1.2" viewBox="0 0 50.399 79.129"><path d="M23.4.02C10.345.95 0 11.841 0 25.129v28.799c0 13.895 11.305 25.201 25.2 25.201 13.894 0 25.199-11.307 25.199-25.201V25.129C50.399 11.841 40.055.95 27.001.02c-.555-.045-3.601 0-3.601 0zm23.4 53.908c0 11.91-9.689 21.6-21.599 21.6S3.6 65.839 3.6 53.928V25.129c0-11.91 9.69-21.601 21.6-21.601s21.599 9.69 21.599 21.601l.001 28.799zm-21.6-42.45c-4.22 0-7.65 3.432-7.65 7.65v11.15c0 4.22 3.431 7.65 7.65 7.65 4.218 0 7.65-3.43 7.65-7.65V19.129c0-4.219-3.431-7.651-7.65-7.651zm4.051 18.8a4.055 4.055 0 0 1-4.05 4.05 4.056 4.056 0 0 1-4.051-4.05V19.129a4.056 4.056 0 0 1 4.051-4.05 4.054 4.054 0 0 1 4.05 4.05v11.149z"/><path d="M26.554 61.48l-4.419-7.129a1.801 1.801 0 0 0-3.041 1.927l4.419 7.129s1.184 1.618 2.591.726c1.407-.892.45-2.653.45-2.653z"/><path d="M24.295 64.133c1.407.892 2.591-.726 2.591-.726l4.419-7.129a1.8 1.8 0 0 0-3.041-1.927l-4.419 7.129s-.957 1.761.45 2.653z"/></svg>